HIERARCHY
ROOT Pelvis
{

	OFFSET     0.000000     0.000000     0.000000
	CHANNELS 6 Xposition Yposition Zposition Zrotation Xrotation Yrotation
	JOINT LowerBack
	{

		OFFSET    -0.000691     0.176488     0.017766
		CHANNELS 3 Zrotation Xrotation Yrotation
		JOINT Chest
		{

			OFFSET    -0.002754     0.128976    -0.000512
			CHANNELS 3 Zrotation Xrotation Yrotation
			JOINT back3
			{

				OFFSET     0.002471     0.201657    -0.000850
				CHANNELS 3 Zrotation Xrotation Yrotation
				JOINT Neck
				{

					OFFSET     0.001840     0.072570     0.000595
					CHANNELS 3 Zrotation Xrotation Yrotation
					JOINT Head
					{

						OFFSET     0.003323     0.152818     0.030907
						CHANNELS 3 Zrotation Xrotation Yrotation
						JOINT joint7
						{

							OFFSET     0.000612     0.183936     0.002625
							CHANNELS 3 Zrotation Xrotation Yrotation
							End Site
							{
								OFFSET     0.000000     0.000000     0.018310
							}
						}

					}

				}

				JOINT LeftCollar
				{

					OFFSET     0.053456     0.093486     0.002205
					CHANNELS 3 Zrotation Xrotation Yrotation
					JOINT LeftShoulder
					{

						OFFSET     0.112884    -0.020868     0.002319
						CHANNELS 3 Zrotation Xrotation Yrotation
						JOINT LeftElbow
						{

							OFFSET     0.297302     0.003523    -0.020737
							CHANNELS 3 Zrotation Xrotation Yrotation
							JOINT LeftWrist
							{

								OFFSET     0.290007     0.004431    -0.007313
								CHANNELS 3 Zrotation Xrotation Yrotation
								JOINT lf_hand
								{

									OFFSET     0.117001    -0.002589    -0.008771
									CHANNELS 3 Zrotation Xrotation Yrotation
									End Site
									{
										OFFSET     0.000000    -0.009821     0.000000
									}
								}

							}

						}

					}

				}

				JOINT RightCollar
				{

					OFFSET    -0.048666     0.096092     0.000301
					CHANNELS 3 Zrotation Xrotation Yrotation
					JOINT RightShoulder
					{

						OFFSET    -0.115072    -0.022479    -0.001894
						CHANNELS 3 Zrotation Xrotation Yrotation
						JOINT RightElbow
						{

							OFFSET    -0.297072     0.004954    -0.020752
							CHANNELS 3 Zrotation Xrotation Yrotation
							JOINT RightWrist
							{

								OFFSET    -0.292425    -0.005826    -0.023258
								CHANNELS 3 Zrotation Xrotation Yrotation
								JOINT rt_hand
								{

									OFFSET    -0.118185    -0.001061    -0.015047
									CHANNELS 3 Zrotation Xrotation Yrotation
									End Site
									{
										OFFSET     0.000000    -0.009987     0.000000
									}
								}

							}

						}

					}

				}

			}

			JOINT joint13
			{

				OFFSET     0.125914     0.117470     0.000000
				CHANNELS 3 Zrotation Xrotation Yrotation
				End Site
				{
					OFFSET     0.000000     0.000000    -0.017144
				}
			}

			JOINT joint14
			{

				OFFSET    -0.120063     0.114907     0.000000
				CHANNELS 3 Zrotation Xrotation Yrotation
				End Site
				{
					OFFSET     0.000000     0.000000    -0.016479
				}
			}

		}

	}

	JOINT RightHip
	{

		OFFSET    -0.109283    -0.057257     0.000987
		CHANNELS 3 Zrotation Xrotation Yrotation
		JOINT RightKnee
		{

			OFFSET     0.002149    -0.429339     0.038617
			CHANNELS 3 Zrotation Xrotation Yrotation
			JOINT RightAnkle
			{

				OFFSET    -0.001765    -0.522522    -0.077092
				CHANNELS 3 Zrotation Xrotation Yrotation
				JOINT r_ball
				{

					OFFSET    -0.000000    -0.037315     0.142913
					CHANNELS 3 Zrotation Xrotation Yrotation
					End Site
					{
						OFFSET     0.000000     0.000000     0.014648
					}
				}

			}

		}

	}

	JOINT LeftHip
	{

		OFFSET     0.098180    -0.056757     0.003895
		CHANNELS 3 Zrotation Xrotation Yrotation
		JOINT LeftKnee
		{

			OFFSET     0.007057    -0.430531     0.035812
			CHANNELS 3 Zrotation Xrotation Yrotation
			JOINT LeftAnkle
			{

				OFFSET    -0.005475    -0.521755    -0.078136
				CHANNELS 3 Zrotation Xrotation Yrotation
				JOINT lf_ball
				{

					OFFSET     0.000065    -0.036737     0.143337
					CHANNELS 3 Zrotation Xrotation Yrotation
					End Site
					{
						OFFSET     0.000000     0.000000     0.014648
					}
				}

			}

		}

	}

}

MOTION
Frames: 8
Frame Time: 0.033333
    0.274883     0.886015    -0.173230     9.877558    -9.736644  -133.854019    -2.610502     3.884218    12.751137    -9.132545    10.996743    13.781665     0.000000     0.000000     0.000000     0.000000     0.000000     0.000000   -19.023542   -27.616598    20.408587     0.000000     0.000000     0.000000    14.121823    -0.626439    -2.495559   -77.417297    12.462459    27.445997     3.712496     1.933853  -124.981621    79.442047   -12.461490   -70.368881     0.000000     0.000000     0.000000   -19.589590    -0.747282     2.107436    84.988503     9.893659    -1.390245    -2.429261     2.360933    91.871658   -34.051815    23.474756     3.140423     0.000000     0.000000     0.000000     0.000000     0.000000     0.000000     0.000000     0.000000     0.000000     7.213481   -23.059622    -2.125664     0.000000     5.501544     0.000000     9.820868   -23.062201     3.025954     0.000000     0.000000     0.000000     1.313725   -32.788239     3.844012    -0.002439    33.716797     0.008050    -1.450924    -5.533931    16.739922     0.000000     0.000000     0.000000 
    0.276049     0.890986    -0.170327    10.883990    -8.510508  -127.025055    -2.058920     3.088978     8.917883    -6.429701    10.994851    10.655286     0.000000     0.000000     0.000000     0.000000     0.000000     0.000000   -18.390472   -24.490408    22.304422     0.000000     0.000000     0.000000    16.045053    -0.980486    -3.395061   -75.351135    15.201098    18.485588     3.795957     1.877555  -127.376785    84.312424   -13.725435   -68.437477     0.000000     0.000000     0.000000   -14.456295    -0.759571     2.929294    86.290802    10.503203   -11.670717    -2.398192     2.352253    91.108414   -35.275837    21.514322     5.123077     0.000000     0.000000     0.000000     0.000000     0.000000     0.000000     0.000000     0.000000     0.000000     5.406754   -23.615700    -9.609484     0.000000     6.425632     0.000000    10.760897   -21.536629     3.389874     0.000000     0.000000     0.000000    -0.206337   -34.403244     0.185122    -0.008079    34.117504     0.002479    -1.787813    -0.450021    16.055271     0.000000     0.000000     0.000000 
    0.276890     0.901409    -0.167582    11.754187    -7.090587  -119.859833    -2.376707     1.714908     4.417106    -3.679470    11.114057     6.619863     0.000000     0.000000     0.000000     0.000000     0.000000     0.000000   -17.457256   -22.654039    26.486635     0.000000     0.000000     0.000000    19.568628    -1.172642    -3.298428   -78.414192    13.725753     9.540659     3.681879     1.962111  -123.904503    80.189880    -8.867525   -63.551991     0.000000     0.000000     0.000000   -10.544723    -0.602563     3.253866    87.896126    11.751657   -20.595587    -2.399915     2.360881    91.178017   -35.508484    20.000032     6.939375     0.000000     0.000000     0.000000     0.000000     0.000000     0.000000     0.000000     0.000000     0.000000     4.535282   -24.058485   -12.796541     0.000000     6.804822     0.000000    11.112652   -19.053465    -1.287284     0.000000     0.000000     0.000000    -0.678195   -31.124352     0.094371    -0.009676    28.496727     0.009676    -1.010348    -1.231925    11.287775     0.000000     0.000000     0.000000 
    0.277445     0.914338    -0.164988    12.358054    -5.608993  -113.078773    -3.098288     0.166518    -0.723275    -0.659040    11.060472     1.870078     0.000000     0.000000     0.000000     0.000000     0.000000     0.000000   -17.276085   -21.976517    31.836548     0.000000     0.000000     0.000000    24.195410    -1.281240    -2.838309   -83.496071    10.506015    -0.777751     3.447941     2.102831  -117.253288    70.981590    -1.712312   -56.091824     0.000000     0.000000     0.000000    -8.962809    -0.416473     2.626904    89.831444    14.375358   -28.289478    -2.437316     2.352280    92.034866   -33.852707    19.827988     8.239618     0.000000     0.000000     0.000000     0.000000     0.000000     0.000000     0.000000     0.000000     0.000000     3.973018   -21.138765   -17.363558     0.000000     2.679893     0.000000    11.211303   -18.924765    -3.101320     0.000000     0.000000     0.000000    -0.699793   -24.477489     0.206143     0.000000    18.053999     0.000000    -2.218045    -4.164903     8.490662     0.000000     0.000000     0.000000 
    0.277757     0.925934    -0.162536    12.659260    -4.246215  -107.363747    -3.353497    -0.406547    -4.050517     1.123230    10.883679    -1.168140     0.000000     0.000000     0.000000     0.000000     0.000000     0.000000   -18.198788   -21.712629    32.806274     0.000000     0.000000     0.000000    28.169807    -1.276513    -2.384728   -87.908318     8.284163   -10.354854     3.161102     2.221651  -109.807129    60.424953     4.166654   -48.179546     0.000000     0.000000     0.000000    -8.168122    -0.225253     1.582961    92.574440    12.349201   -35.470589    -2.488649     2.349194    93.303268   -31.210421    20.151928     9.434353     0.000000     0.000000     0.000000     0.000000     0.000000     0.000000     0.000000     0.000000     0.000000     3.815829   -18.309616   -21.789188     0.000000    -1.441151     0.000000    11.498865   -17.958061    -4.023479     0.000000     0.000000     0.000000    -0.709063   -21.614372     0.277740     0.000000    12.436231     0.000000    -3.526935    -1.198379     5.011840     0.000000     0.000000     0.000000 
    0.277863     0.932933    -0.160219    12.658755    -3.210653  -103.391808    -2.609874     0.366982    -5.038220     1.211128    10.945014    -2.076898     0.000000     0.000000     0.000000     0.000000     0.000000     0.000000   -19.600271   -22.447975    30.498228     0.000000     0.000000     0.000000    29.667898    -1.292491    -2.256155   -90.743813     7.310449   -14.802048     2.937625     2.288166  -103.958122    53.475498     7.181909   -43.521442     0.000000     0.000000     0.000000    -7.812569    -0.070161     0.514068    94.910568     7.450526   -39.557812    -2.567885     2.346411    95.162422   -29.038338    20.473707    10.669146     0.000000     0.000000     0.000000     0.000000     0.000000     0.000000     0.000000     0.000000     0.000000     3.804391   -16.427456   -23.755747     0.000000    -3.883802     0.000000    11.581419   -17.777334    -5.525839     0.000000     0.000000     0.000000    -1.251413   -24.238583    -0.862649     0.000000    15.050128     0.000000    -2.223433     5.795437     1.156565     0.000000     0.000000     0.000000 
    0.277804     0.933357    -0.158031    12.404358    -2.644693  -101.867561    -1.321300     1.828865    -4.961967     0.435680    11.170014    -2.010854     0.000000     0.000000     0.000000     0.000000     0.000000     0.000000   -20.614712   -24.222017    29.725142     0.000000     0.000000     0.000000    27.836798    -1.355882    -2.561855   -93.286613     5.781180   -10.041595     2.758618     2.331093   -99.606033    51.798656     8.314995   -43.858559     0.000000     0.000000     0.000000    -7.533197     0.011030    -0.167543    95.915382     4.929008   -40.151554    -2.674233     2.333071    97.797867   -28.837221    20.225573    12.183739     0.000000     0.000000     0.000000     0.000000     0.000000     0.000000     0.000000     0.000000     0.000000     3.050020   -18.674685   -22.084866     0.000000    -0.615702     0.000000    12.338629   -15.877321   -10.023466     0.000000     0.000000     0.000000    -2.287949   -29.029541    -3.418844     0.000000    20.803062     0.000000    -0.041819    14.444664    -0.671748     0.000000     0.000000     0.000000 
    0.277621     0.919940    -0.155962    11.643477    -2.780390  -104.463058    -0.109677     3.469303    -4.007811    -0.735668    11.521216    -1.071942     0.000000     0.000000     0.000000     0.000000     0.000000     0.000000   -20.935156   -26.647266    32.353531     0.000000     0.000000     0.000000    23.912205    -1.384585    -3.125780   -95.808441     3.508957     0.470497     2.583913     2.350175   -95.426048    52.636955     8.772947   -47.055042     0.000000     0.000000     0.000000    -7.007292     0.028075    -0.229581    93.514732     9.451710   -36.497723    -2.872992     2.302545   102.801544   -32.835400    18.058550    14.675615     0.000000     0.000000     0.000000     0.000000     0.000000     0.000000     0.000000     0.000000     0.000000     2.386585   -22.109562   -18.832211     0.000000     5.445301     0.000000    13.173370   -16.470797   -11.801181     0.000000     0.000000     0.000000    -3.097989   -32.123436    -5.969953     0.000000    26.558760     0.000000     0.203761    15.372985     1.419910     0.000000     0.000000     0.000000 
